<mxfile host="app.diagrams.net" agent="Mozilla/5.0 (Macintosh; Intel Mac OS X 10_15_7) AppleWebKit/537.36 (KHTML, like Gecko) Chrome/128.0.0.0 Safari/537.36" version="24.7.12">
  <diagram name="Page-1" id="eHJt5u8EL7nDX21M7uQU">
    <mxGraphModel dx="1404" dy="1998" grid="1" gridSize="10" guides="1" tooltips="1" connect="1" arrows="1" fold="1" page="1" pageScale="1" pageWidth="850" pageHeight="1100" math="0" shadow="0">
      <root>
        <mxCell id="0" />
        <mxCell id="1" parent="0" />
        <mxCell id="-glo2ZOXrMd7Wmbr0ioS-6" style="edgeStyle=orthogonalEdgeStyle;rounded=0;orthogonalLoop=1;jettySize=auto;html=1;" edge="1" parent="1" source="-glo2ZOXrMd7Wmbr0ioS-1" target="-glo2ZOXrMd7Wmbr0ioS-7">
          <mxGeometry relative="1" as="geometry">
            <mxPoint x="290" y="280" as="targetPoint" />
          </mxGeometry>
        </mxCell>
        <mxCell id="-glo2ZOXrMd7Wmbr0ioS-1" value="Actor" style="shape=umlActor;verticalLabelPosition=bottom;verticalAlign=top;html=1;outlineConnect=0;" vertex="1" parent="1">
          <mxGeometry x="50" y="250" width="30" height="60" as="geometry" />
        </mxCell>
        <mxCell id="-glo2ZOXrMd7Wmbr0ioS-8" style="edgeStyle=orthogonalEdgeStyle;rounded=0;orthogonalLoop=1;jettySize=auto;html=1;exitX=1;exitY=0.25;exitDx=0;exitDy=0;" edge="1" parent="1" source="-glo2ZOXrMd7Wmbr0ioS-7" target="-glo2ZOXrMd7Wmbr0ioS-9">
          <mxGeometry relative="1" as="geometry">
            <mxPoint x="450" y="210" as="targetPoint" />
            <Array as="points">
              <mxPoint x="350" y="210" />
              <mxPoint x="411" y="210" />
            </Array>
          </mxGeometry>
        </mxCell>
        <mxCell id="-glo2ZOXrMd7Wmbr0ioS-12" style="edgeStyle=orthogonalEdgeStyle;rounded=0;orthogonalLoop=1;jettySize=auto;html=1;exitX=0.75;exitY=1;exitDx=0;exitDy=0;" edge="1" parent="1" source="-glo2ZOXrMd7Wmbr0ioS-7" target="-glo2ZOXrMd7Wmbr0ioS-13">
          <mxGeometry relative="1" as="geometry">
            <mxPoint x="440" y="330" as="targetPoint" />
            <Array as="points">
              <mxPoint x="320" y="340" />
              <mxPoint x="440" y="340" />
            </Array>
          </mxGeometry>
        </mxCell>
        <mxCell id="-glo2ZOXrMd7Wmbr0ioS-7" value="API Gateway/Load balancer" style="rounded=0;whiteSpace=wrap;html=1;" vertex="1" parent="1">
          <mxGeometry x="230" y="260" width="120" height="60" as="geometry" />
        </mxCell>
        <mxCell id="-glo2ZOXrMd7Wmbr0ioS-9" value="Read instance" style="rounded=0;whiteSpace=wrap;html=1;" vertex="1" parent="1">
          <mxGeometry x="390" y="180" width="120" height="60" as="geometry" />
        </mxCell>
        <mxCell id="-glo2ZOXrMd7Wmbr0ioS-24" style="edgeStyle=orthogonalEdgeStyle;rounded=0;orthogonalLoop=1;jettySize=auto;html=1;exitX=1;exitY=0.75;exitDx=0;exitDy=0;" edge="1" parent="1" source="-glo2ZOXrMd7Wmbr0ioS-11" target="-glo2ZOXrMd7Wmbr0ioS-19">
          <mxGeometry relative="1" as="geometry" />
        </mxCell>
        <mxCell id="-glo2ZOXrMd7Wmbr0ioS-25" style="edgeStyle=orthogonalEdgeStyle;rounded=0;orthogonalLoop=1;jettySize=auto;html=1;exitX=1;exitY=0.25;exitDx=0;exitDy=0;entryX=0;entryY=0;entryDx=0;entryDy=15;entryPerimeter=0;" edge="1" parent="1" source="-glo2ZOXrMd7Wmbr0ioS-11" target="-glo2ZOXrMd7Wmbr0ioS-20">
          <mxGeometry relative="1" as="geometry">
            <mxPoint x="580" y="380" as="targetPoint" />
          </mxGeometry>
        </mxCell>
        <mxCell id="-glo2ZOXrMd7Wmbr0ioS-11" value="Read instances" style="rounded=0;whiteSpace=wrap;html=1;" vertex="1" parent="1">
          <mxGeometry x="400" y="200" width="120" height="60" as="geometry" />
        </mxCell>
        <mxCell id="-glo2ZOXrMd7Wmbr0ioS-13" value="" style="rounded=0;whiteSpace=wrap;html=1;" vertex="1" parent="1">
          <mxGeometry x="380" y="300" width="120" height="60" as="geometry" />
        </mxCell>
        <mxCell id="-glo2ZOXrMd7Wmbr0ioS-27" style="edgeStyle=orthogonalEdgeStyle;rounded=0;orthogonalLoop=1;jettySize=auto;html=1;exitX=1;exitY=0.5;exitDx=0;exitDy=0;" edge="1" parent="1" source="-glo2ZOXrMd7Wmbr0ioS-14" target="-glo2ZOXrMd7Wmbr0ioS-20">
          <mxGeometry relative="1" as="geometry" />
        </mxCell>
        <mxCell id="-glo2ZOXrMd7Wmbr0ioS-39" style="edgeStyle=orthogonalEdgeStyle;rounded=0;orthogonalLoop=1;jettySize=auto;html=1;exitX=0.75;exitY=0;exitDx=0;exitDy=0;entryX=0.403;entryY=1.006;entryDx=0;entryDy=0;entryPerimeter=0;" edge="1" parent="1" source="-glo2ZOXrMd7Wmbr0ioS-14" target="-glo2ZOXrMd7Wmbr0ioS-37">
          <mxGeometry relative="1" as="geometry">
            <mxPoint x="580" y="130" as="targetPoint" />
            <Array as="points">
              <mxPoint x="540" y="320" />
              <mxPoint x="540" y="190" />
              <mxPoint x="538" y="190" />
            </Array>
          </mxGeometry>
        </mxCell>
        <mxCell id="-glo2ZOXrMd7Wmbr0ioS-14" value="Write instaces" style="rounded=0;whiteSpace=wrap;html=1;" vertex="1" parent="1">
          <mxGeometry x="410" y="320" width="120" height="60" as="geometry" />
        </mxCell>
        <mxCell id="-glo2ZOXrMd7Wmbr0ioS-15" value="DB" style="shape=cylinder3;whiteSpace=wrap;html=1;boundedLbl=1;backgroundOutline=1;size=15;" vertex="1" parent="1">
          <mxGeometry x="630" y="150" width="60" height="80" as="geometry" />
        </mxCell>
        <mxCell id="-glo2ZOXrMd7Wmbr0ioS-19" value="DB" style="shape=cylinder3;whiteSpace=wrap;html=1;boundedLbl=1;backgroundOutline=1;size=15;" vertex="1" parent="1">
          <mxGeometry x="640" y="240" width="60" height="80" as="geometry" />
        </mxCell>
        <mxCell id="-glo2ZOXrMd7Wmbr0ioS-20" value="DB" style="shape=cylinder3;whiteSpace=wrap;html=1;boundedLbl=1;backgroundOutline=1;size=15;" vertex="1" parent="1">
          <mxGeometry x="640" y="350" width="60" height="80" as="geometry" />
        </mxCell>
        <mxCell id="-glo2ZOXrMd7Wmbr0ioS-22" style="edgeStyle=orthogonalEdgeStyle;rounded=0;orthogonalLoop=1;jettySize=auto;html=1;exitX=1;exitY=0.5;exitDx=0;exitDy=0;entryX=0;entryY=0.5;entryDx=0;entryDy=0;entryPerimeter=0;" edge="1" parent="1" source="-glo2ZOXrMd7Wmbr0ioS-11" target="-glo2ZOXrMd7Wmbr0ioS-15">
          <mxGeometry relative="1" as="geometry" />
        </mxCell>
        <mxCell id="-glo2ZOXrMd7Wmbr0ioS-28" value="DKGS&lt;span style=&quot;color: rgba(0, 0, 0, 0); font-family: monospace; font-size: 0px; text-align: start; text-wrap: nowrap;&quot;&gt;%3CmxGraphModel%3E%3Croot%3E%3CmxCell%20id%3D%220%22%2F%3E%3CmxCell%20id%3D%221%22%20parent%3D%220%22%2F%3E%3CmxCell%20id%3D%222%22%20value%3D%22Write%20instaces%22%20style%3D%22rounded%3D0%3BwhiteSpace%3Dwrap%3Bhtml%3D1%3B%22%20vertex%3D%221%22%20parent%3D%221%22%3E%3CmxGeometry%20x%3D%22400%22%20y%3D%22320%22%20width%3D%22120%22%20height%3D%2260%22%20as%3D%22geometry%22%2F%3E%3C%2FmxCell%3E%3C%2Froot%3E%3C%2FmxGraphModel%3E&lt;/span&gt;" style="rounded=0;whiteSpace=wrap;html=1;" vertex="1" parent="1">
          <mxGeometry x="400" y="430" width="120" height="60" as="geometry" />
        </mxCell>
        <mxCell id="-glo2ZOXrMd7Wmbr0ioS-29" value="DKGS&lt;span style=&quot;color: rgba(0, 0, 0, 0); font-family: monospace; font-size: 0px; text-align: start; text-wrap: nowrap;&quot;&gt;%3CmxGraphModel%3E%3Croot%3E%3CmxCell%20id%3D%220%22%2F%3E%3CmxCell%20id%3D%221%22%20parent%3D%220%22%2F%3E%3CmxCell%20id%3D%222%22%20value%3D%22Write%20instaces%22%20style%3D%22rounded%3D0%3BwhiteSpace%3Dwrap%3Bhtml%3D1%3B%22%20vertex%3D%221%22%20parent%3D%221%22%3E%3CmxGeometry%20x%3D%22400%22%20y%3D%22320%22%20width%3D%22120%22%20height%3D%2260%22%20as%3D%22geometry%22%2F%3E%3C%2FmxCell%3E%3C%2Froot%3E%3C%2FmxGraphModel%3E&lt;/span&gt;" style="rounded=0;whiteSpace=wrap;html=1;" vertex="1" parent="1">
          <mxGeometry x="410" y="450" width="120" height="60" as="geometry" />
        </mxCell>
        <mxCell id="-glo2ZOXrMd7Wmbr0ioS-30" value="Cache" style="shape=cylinder3;whiteSpace=wrap;html=1;boundedLbl=1;backgroundOutline=1;size=15;" vertex="1" parent="1">
          <mxGeometry x="600" y="470" width="60" height="80" as="geometry" />
        </mxCell>
        <mxCell id="-glo2ZOXrMd7Wmbr0ioS-31" style="edgeStyle=orthogonalEdgeStyle;rounded=0;orthogonalLoop=1;jettySize=auto;html=1;exitX=1;exitY=0.5;exitDx=0;exitDy=0;entryX=0;entryY=0;entryDx=0;entryDy=52.5;entryPerimeter=0;" edge="1" parent="1" source="-glo2ZOXrMd7Wmbr0ioS-29" target="-glo2ZOXrMd7Wmbr0ioS-30">
          <mxGeometry relative="1" as="geometry" />
        </mxCell>
        <mxCell id="-glo2ZOXrMd7Wmbr0ioS-32" value="" style="rounded=0;whiteSpace=wrap;html=1;" vertex="1" parent="1">
          <mxGeometry x="200" y="50" width="120" height="60" as="geometry" />
        </mxCell>
        <mxCell id="-glo2ZOXrMd7Wmbr0ioS-33" value="" style="rounded=0;whiteSpace=wrap;html=1;" vertex="1" parent="1">
          <mxGeometry x="210" y="60" width="120" height="60" as="geometry" />
        </mxCell>
        <mxCell id="-glo2ZOXrMd7Wmbr0ioS-35" style="edgeStyle=orthogonalEdgeStyle;rounded=0;orthogonalLoop=1;jettySize=auto;html=1;exitX=0.75;exitY=1;exitDx=0;exitDy=0;entryX=0.25;entryY=0;entryDx=0;entryDy=0;" edge="1" parent="1" source="-glo2ZOXrMd7Wmbr0ioS-34" target="-glo2ZOXrMd7Wmbr0ioS-11">
          <mxGeometry relative="1" as="geometry" />
        </mxCell>
        <mxCell id="-glo2ZOXrMd7Wmbr0ioS-34" value="Memecached" style="rounded=0;whiteSpace=wrap;html=1;" vertex="1" parent="1">
          <mxGeometry x="220" y="70" width="140" height="60" as="geometry" />
        </mxCell>
        <mxCell id="-glo2ZOXrMd7Wmbr0ioS-37" value="S3 Blob" style="whiteSpace=wrap;html=1;aspect=fixed;" vertex="1" parent="1">
          <mxGeometry x="490" y="-10" width="120" height="120" as="geometry" />
        </mxCell>
        <mxCell id="-glo2ZOXrMd7Wmbr0ioS-38" value="" style="endArrow=classic;startArrow=classic;html=1;rounded=0;entryX=0;entryY=0.75;entryDx=0;entryDy=0;exitX=1;exitY=0.3333333333333333;exitDx=0;exitDy=0;exitPerimeter=0;" edge="1" parent="1" source="-glo2ZOXrMd7Wmbr0ioS-1" target="-glo2ZOXrMd7Wmbr0ioS-37">
          <mxGeometry width="50" height="50" relative="1" as="geometry">
            <mxPoint x="170" y="290" as="sourcePoint" />
            <mxPoint x="220" y="240" as="targetPoint" />
            <Array as="points">
              <mxPoint x="180" y="10" />
              <mxPoint x="350" y="10" />
            </Array>
          </mxGeometry>
        </mxCell>
        <mxCell id="-glo2ZOXrMd7Wmbr0ioS-40" value="" style="endArrow=classic;startArrow=classic;html=1;rounded=0;exitX=0.5;exitY=0;exitDx=0;exitDy=0;entryX=0.441;entryY=1.067;entryDx=0;entryDy=0;entryPerimeter=0;" edge="1" parent="1" source="-glo2ZOXrMd7Wmbr0ioS-28" target="-glo2ZOXrMd7Wmbr0ioS-14">
          <mxGeometry width="50" height="50" relative="1" as="geometry">
            <mxPoint x="410" y="350" as="sourcePoint" />
            <mxPoint x="460" y="300" as="targetPoint" />
            <Array as="points" />
          </mxGeometry>
        </mxCell>
      </root>
    </mxGraphModel>
  </diagram>
</mxfile>
